<?xml version="1.0" encoding="UTF-8"?>
<svg id="svg2" xmlns="http://www.w3.org/2000/svg" viewBox="0 0 110.28145 102.37841">
  <defs>
    <style>
      .cls-1 {
        fill: #40a578;
      }
    </style>
  </defs>
  <g id="layer1">
    <g id="layer1-9">
      <path id="path3028" class="cls-1" d="M19.28375,101.85511c0-.91874,5.08981-5.22802,7.83257-6.63142,1.45316-.7435,4.09622-1.83884,5.87342-2.43405,3.79395-1.27065,3.69757-.8654,2.14957-9.03786-1.93305-10.20544-4.61809-18.37186-8.31289-25.28319-1.18047-2.20821-2.33575-4.19151-2.56725-4.40735s-.87511,.98556-1.43026,2.66976c-.84566,2.56544-1.17888,3.02142-2.05438,2.81115-.97055-.23312-.9821-.1872-.16194,.64523,.95128,.96553,.6053,2.75171-.42993,2.21952-.44534-.22896-.44115-.13817,.01472,.31494,.77813,.77372,.31516,2.15192-.56089,1.66977-.46212-.25435-.46818-.15519-.02295,.37924,.41924,.50351,.43813,1.25799,.06199,2.48016l-.54051,1.75651-1.01799-2.08903c-.55993-1.14888-1.30981-3.81295-1.66648-5.92009-.63645-3.76036-.66398-3.80753-1.49261-2.5532-.46426,.70285-1.03307,1.27796-1.26397,1.27796s-.41981,.35396-.41981,.78657c0,.58657-.31159,.69577-1.22506,.42949-1.07634-.31381-1.13693-.25966-.49933,.44606,.90757,1.00447,.36278,1.91457-.88832,1.48408-.78528-.27019-.82784-.19758-.26045,.44445,.77234,.87398,.38965,1.48395-.69176,1.10277-.52102-.18363-.63596,.06107-.40687,.8658,.22039,.77423,.12341,1.01059-.31307,.76282-.39278-.22297-.63242-.00506-.63242,.57838,0,.51557-.35127,1.3758-.78054,1.91157-.75054,.93677-.79551,.93866-1.17063,.04919-.59689-1.41497,.68323-8.55206,2.06194-11.49579,.67563-1.44257,2.25807-3.78411,3.51655-5.20326l2.28815-2.5804-1.45524-.04317c-.80036-.02357-2.25429-.06589-3.23093-.09394-1.27079-.03662-1.78043-.29129-1.7923-.89574-.0153-.77072-.06534-.76785-.57353,.0336-.3063,.48306-.79055,.87827-1.07612,.87827-.2856,0-.53862-.39521-.56237-.87827-.02566-.52466-.15407-.62566-.31869-.25095-.15157,.34504-.62389,.62732-1.04955,.62732-.42574,0-.7778-.28228-.7824-.62732-.00653-.48935-.10606-.48593-.45261,.01556-.30531,.44195-.84042,.50839-1.71145,.21241l-1.26717-.43057,1.69231-1.1069c4.0396-2.6421,7.83558-3.82788,12.26478-3.83136l4.23433-.00504,.01201-2.00743c.00653-1.10408,.48705-2.96866,1.06756-4.14351,1.20822-2.4449,3.73314-5.64264,4.45538-5.64264,.66595,0-.08807,4.17413-.83721,4.63447-.39703,.24395-.34033,.37128,.16764,.37637,.58707,.00599,.535,.24379-.22127,1.0114-.66502,.67497-.76033,1.00369-.29094,1.00369,.54589,0,.53456,.18496-.0519,.84915-.50953,.57695-.53094,.72826-.06688,.47218,.37561-.20728,.68295-.15101,.68295,.12502s-.24345,.64001-.54095,.80891c-.34225,.19433-.29884,.54511,.11812,.95513,.52927,.52043,1.18004,.12432,3.30545-2.01176,1.49026-1.49768,3.88534-3.20641,5.48215-3.91099,2.67915-1.18215,9.48865-2.6356,10.02785-2.14031,.54931,.50456-3.40723,3.36603-4.355,3.14969-.79685-.18194-.86392-.0888-.34743,.48285,.51249,.56723,.38272,.80286-.6517,1.18331-.71043,.26127-1.07716,.48935-.81501,.50688,.26215,.01758,.17288,.36806-.19849,.77909-.37136,.41098-.8674,.6381-1.10241,.50472-.23493-.13338-.57794,.11837-.76222,.55947-.19709,.47182-.68224,.67955-1.17836,.50472-.54849-.19332-.70708-.09475-.45365,.28193,.22558,.33522-.27581,1.0666-1.19043,1.73648l-1.58014,1.15732,2.67155-.73854c5.2357-1.44736,10.82435-.72841,16.00187,2.05871l2.58762,1.39291-1.57909,.48351c-1.08862,.3333-1.89068,.30479-2.58217-.09188-.80672-.46276-1.00302-.42725-1.00302,.18164,0,.92098-.62307,.97115-1.60997,.12976-.58866-.50184-.65869-.50184-.35022,0,.25182,.40967,.01089,.62732-.69387,.62732-.59368,0-1.20348-.28228-1.35502-.62732-.16462-.37476-.29289-.27372-.31869,.25095-.02347,.48306-.32333,.87827-.66585,.87827s-.95778-.39521-1.36728-.87827c-.70909-.83646-.72864-.83646-.41153,0,.28892,.76211-.03825,.87827-2.47224,.87827h-2.80519l4.20072,3.13659c2.31036,1.7251,4.58727,3.68266,5.05978,4.35003l.85904,1.21348-2.7228-.34212c-1.49752-.18814-2.79601-.54083-2.88556-.78377-.08955-.24289-.64273-.3264-1.22931-.18547-.61117,.14678-1.06649,.00504-1.06649-.33386,0-.32449-.24759-.44946-.55025-.27764-.30262,.17181-.70563-.05969-.89562-.51434-.27652-.66197-.43906-.69325-.81566-.15731-.35809,.50965-.54682,.41385-.79066-.40146-.23619-.78961-.61912-.99911-1.45809-.79762-.92199,.22148-1.06611,.1018-.75989-.63115,.29977-.71753,.2258-.78856-.35793-.34353-.54569,.41596-.91821,.40191-1.44186-.0545-.38831-.33844,.44682,.94732,1.85583,2.85724,6.12913,8.30822,11.51353,21.33049,13.66025,33.03732,.31902,1.73963,.48436,1.88196,2.18599,1.88196h1.84092l.33989-3.88936c.62055-7.10196,1.9543-16.31119,3.10274-21.42413,2.48672-11.07116,7.4941-23.52137,12.70516-31.58952,1.40575-2.17652,2.48104-4.02619,2.38952-4.11026-.09158-.08412-1.35352,.52577-2.80437,1.35528-1.45088,.82946-2.6945,1.43703-2.76363,1.35004s-.55724-.72272-1.0847-1.41275l-.95898-1.25464,.37208,1.66476c.28066,1.25554,.12446,1.91661-.63549,2.68955-1.00214,1.01925-1.01116,1.01432-1.6486-.91191l-.641-1.93661-.04206,2.34199c-.04645,2.59722-1.01569,3.40411-2.07149,1.72475-.62494-.99402-.66475-.96395-.68295,.51585-.01801,1.46977-1.28648,2.78485-4.21133,4.3665-1.95539,1.05738,2.90535-8.96792,6.34634-13.08937,2.39574-2.86953,2.391-2.88262-.756-2.08011-1.86524,.47565-2.24861,.42896-2.86842-.34962-.67377-.84638-.71547-.83782-.71547,.14723,0,1.65519-1.50605,1.81234-2.46122,.25684l-.83615-1.36188,.14614,1.49627c.17718,1.8133-1.39552,2.36179-2.67144,.93166-.79408-.89005-.81114-.88859-.48661,.04115,.19117,.54788,.03386,1.13994-.36519,1.3724-1.04979,.6118-1.52102,.51006-1.52102-.32862,0-.41405-.24587-.75279-.54635-.75279-.30051,0-.54638,.45168-.54638,1.00369,0,.55761-.36426,1.00369-.81956,1.00369-.45074,0-.81953-.23911-.81953-.53146,0-.2923-.24984-.38967-.55526-.21624-.30542,.17338-.42571,.50779-.26739,.74307,.2445,.36338-5.18986,2.17703-5.54521,1.85062-.31422-.28862,5.83418-6.47235,8.26628-8.31381,5.48494-4.15293,13.38784-7.06995,19.21547-7.09257l2.65299-.01053-2.67281-2.14791c-2.41389-1.93988-2.61049-2.25485-2.02964-3.25174,.35376-.60707,.41496-1.10383,.13605-1.10383s-.65929,.36418-.84522,.80931c-.27619,.66112-.48927,.69406-1.16353,.18013-.73568-.56083-.7336-.75788,.01914-1.81305,.73217-1.02636,.73744-1.18377,.03935-1.18377-.44271,0-1.02007,.353-1.28291,.78448-.43265,.71018-.54591,.70927-1.19528-.00947-.60083-.665-.55828-.95538,.26232-1.78822,1.02822-1.04363,.39736-1.41799-.69639-.41334-.47904,.44004-.8489,.41601-1.52453-.09908-.82071-.62566-.81163-.73496,.11343-1.36686,.9257-.63236,.89611-.66218-.37345-.37687-1.10938,.24939-1.61981,.01053-2.61156-1.22154l-1.23271-1.53148h1.67849c6.80726,0,16.61498,3.61033,20.86281,7.67979l2.61353,2.50378,2.65954-2.28497c1.46278-1.2568,3.6704-2.75876,4.90596-3.33772,2.77561-1.30068,7.88551-2.55345,10.41514-2.55345h1.89584l-2.34834,1.88196c-1.2916,1.03507-3.11837,2.15149-4.05948,2.48097-.94111,.32943-1.3893,.6117-.99597,.62732,1.52036,.06024-.05355,1.032-1.67144,1.032-1.62192,0-1.65592,.03863-.65066,.73682,1.00033,.69502,.95199,.74106-.85172,.81102-1.05177,.04065-1.4684,.17987-.92592,.30903,1.35804,.32333,.80818,1.4334-.63678,1.28567-1.24932-.12774-1.6262,.64737-.48617,.99986,.52047,.16088,.48795,.42946-.1366,1.12876-.76927,.86134-.71983,.89484,.80604,.54552,7.17508-1.64244,11.69153-1.53314,17.565,.42518,3.73089,1.24396,9.02456,3.99657,10.43532,5.4263,.81424,.82518,.70475,.87862-1.81328,.88512-1.474,.00504-3.22874,.142-3.89952,.30716-.97379,.23971-1.35291,.01103-1.88106-1.13606l-.66149-1.43632-.20405,1.38011c-.25363,1.71503-1.89529,1.86523-2.74287,.25095l-.59286-1.12916-.03715,1.12916c-.02786,.84568-.36399,1.12916-1.3392,1.12916-.86576,0-1.4383-.37839-1.70843-1.12916l-.40627-1.12916-.24184,1.12916c-.14442,.67436-.641,1.12916-1.23282,1.12916-.54506,0-1.17387-.50814-1.39728-1.12916l-.40627-1.12916-.24184,1.12916c-.2128,.99356-.58181,1.13173-3.07225,1.15042l-2.83039,.02106,3.16841,1.20875c5.64066,2.15189,10.22318,5.79612,13.24562,10.5334,1.51907,2.38088,4.31936,9.2358,3.92203,9.60078-.12517,.11495-1.3292-.35647-2.67556-1.04766-2.21856-1.13899-2.43046-1.41003-2.26161-2.893,.17323-1.5217,.14167-1.55721-.45047-.50708-1.00656,1.78494-2.10263,1.40152-2.15202-.75279-.04206-1.83748-.05593-1.84982-.58532-.51998-.47583,1.19525-.67267,1.28743-1.60816,.75279-.8161-.46638-.99169-.96223-.74912-2.11477l.31696-1.50558-1.02202,1.1682c-.86883,.99306-1.1196,1.06026-1.67259,.4482-.37841-.41878-.52277-1.4323-.34507-2.42284l.30548-1.70284-.89178,1.42303c-1.00677,1.60658-.74879,1.70984-5.39594-2.1594-1.36843-1.13934-2.00439-1.44781-1.77966-.86315,1.61844,4.21015,3.41941,15.95179,2.64238,17.22723-.37284,.61196-.97083,.24682-3.01402-1.84055-2.64271-2.69993-2.92414-3.22686-2.0025-3.75011,.30051-.17056,.54638-.5503,.54638-.84381,0-.32509-.33662-.27709-.86118,.1228-.71372,.54406-.94618,.53313-1.35755-.06402-.70865-1.02867-.63651-1.3513,.44304-1.98189,.79694-.46548,.7059-.50985-.54635-.26631-1.75639,.34151-2.12125-.82125-.54638-1.74112,.80513-.47026,.72787-.51439-.48938-.27941-2.03077,.39199-2.60229-1.10085-.90319-2.35942l1.25599-.9303-1.29755,.33607c-.83686,.21675-1.46426,.09429-1.76727-.34499-.76491-1.10886-.56566-1.43381,.87939-1.43381,.75126,0,1.36591-.22581,1.36591-.50184s-.71098-.50184-1.57997-.50184c-1.45255,0-1.61915-.19227-2.06532-2.3838l-.48529-2.3838-2.32774,3.57633c-7.83934,12.04453-12.75783,31.13734-14.07702,54.64489l-.36646,6.53015,4.30425,1.1607c2.36739,.63835,6.33093,2.03171,8.80795,3.09635,4.2088,1.80899,11.84998,6.15522,12.48759,7.10282,.15604,.23196-14.23671,.42176-31.98399,.42176-22.1254,0-32.26772-.16527-32.26772-.5258l-.00011,.00257,.00004-.00007Z"/>
    </g>
  </g>
</svg>